# xmcd CD database file
#
# Track frame offsets:
#	150
#	17049
#	36371
#	50154
#	68303
#	82851
#	99081
#	112815
#	127127
#	143636
#	159865
#	175602
#	188672
#	205688
#	220698
#	233584
#	252849
#	267833
#	282943
#	298882
#	312091
#	328153
#
# Disc length: 4590 seconds
#
# Revision: 0
# Processed by: cddbd v1.5.2PL0 Copyright (c) Steve Scherf et al.
# Submitted via: CDex 1.51
#
DISCID=2811ec16
DTITLE=Alabama - The Essential Alabama (Remastered) [CDTwo)
DYEAR=2005
DGENRE=Country
TTITLE0=Touch Me When We're Dancing
TTITLE1=You've Got The Touch
TTITLE2=Face To Face
TTITLE3=Fallin' Again
TTITLE4=Song Of The South
TTITLE5=If I Had You
TTITLE6=High Cotton
TTITLE7=Southern Star
TTITLE8=Jukebox In My Mind
TTITLE9=Forever's As Far As I'll Go
TTITLE10=Down Home
TTITLE11=Here We Are
TTITLE12=Then Again
TTITLE13=Born Country
TTITLE14=I'm In A Hurry (And Don't Know Why)
TTITLE15=Once Upon A Lifetime
TTITLE16=Hometown Honeymoon
TTITLE17=Reckless
TTITLE18=Give Me One More Shot
TTITLE19=She Ain't Your Ordinary Girl
TTITLE20=In Pictures
TTITLE21=Sad Lookin' Moon
EXTD=YEAR: 2005
EXTT0=
EXTT1=
EXTT2=
EXTT3=
EXTT4=
EXTT5=
EXTT6=
EXTT7=
EXTT8=
EXTT9=
EXTT10=
EXTT11=
EXTT12=
EXTT13=
EXTT14=
EXTT15=
EXTT16=
EXTT17=
EXTT18=
EXTT19=
EXTT20=
EXTT21=
PLAYORDER=
